<svg viewBox="0 0 32 32" xmlns="http://www.w3.org/2000/svg"><path d="M23.169 0H8.83C3.96 0 0 3.962 0 8.83v14.34C0 28.04 3.961 32 8.83 32h14.34c4.87 0 8.83-3.96 8.83-8.83V8.831C32 3.96 28.04 0 23.17 0zm5.992 23.169a5.998 5.998 0 01-5.992 5.992H8.831a5.998 5.998 0 01-5.992-5.992V8.831a5.998 5.998 0 015.992-5.992h14.338a5.999 5.999 0 015.992 5.992v14.338z"/><path d="M16 7.755c-4.547 0-8.246 3.699-8.246 8.245 0 4.547 3.7 8.245 8.246 8.245 4.547 0 8.245-3.698 8.245-8.245 0-4.546-3.698-8.245-8.245-8.245zm0 13.651A5.412 5.412 0 0110.594 16 5.412 5.412 0 0116 10.594 5.412 5.412 0 0121.406 16 5.412 5.412 0 0116 21.406zm8.591-16.059a2.09 2.09 0 00-1.47.61 2.092 2.092 0 00-.612 1.472 2.1 2.1 0 00.612 1.473c.386.386.923.61 1.47.61.55 0 1.085-.224 1.473-.61a2.1 2.1 0 00.61-1.473c0-.548-.222-1.086-.61-1.472a2.091 2.091 0 00-1.473-.61z"/></svg>